<svg xmlns="http://www.w3.org/2000/svg" viewBox="0 0 1245.53 318.61"><defs><style>.cls-1{fill:#00e78e;}</style></defs><g id="Layer_2" data-name="Layer 2"><g id="Layer_1-2" data-name="Layer 1"><path d="M348.83,42.24h17.53l1.65,9.4c6.11-6.93,14.38-11.55,24.3-11.55,22.48,0,38.84,18.15,38.84,43.4,0,25.08-16.36,43.39-38.84,43.39a31.48,31.48,0,0,1-22-8.74v35.47H348.83Zm60.5,41.25c0-14.69-7.77-24.26-19.5-24.26-12.73,0-19.51,9.57-19.51,24.26s6.78,24.25,19.51,24.25C401.56,107.74,409.33,98.17,409.33,83.49Z"/><path d="M524.38,83.49c0,25.24-17.52,43.39-43,43.39s-42.81-18.15-42.81-43.39c0-25.08,17.35-43.4,42.81-43.4S524.38,58.41,524.38,83.49Zm-21.82,0c0-14.36-7.94-24.26-21.16-24.26-13.06,0-21,9.9-21,24.26,0,14.52,7.93,24.25,21,24.25C494.62,107.74,502.56,98,502.56,83.49ZM471.48,23.1,496.61,0l10.74,10.72L482.06,34Z"/><path d="M565.2,39.76c13.55,0,23.47,6.6,28.93,14.19L580.9,65.83A20.72,20.72,0,0,0,564,57.75c-6.61,0-10.91,2.8-10.91,7.75,0,4.29,2.65,6.93,14.22,9.57C584.54,79,595,85.63,595,101c0,15.84-13.72,25.9-31.57,25.9-13.22,0-23.64-5.94-31.57-18L545.2,98c7.77,9.07,12.89,11.55,20.66,11.55,5.62,0,9.75-3,9.75-7.43,0-5.61-5.29-8.08-19.67-11.22-13.55-3-21.82-10.39-21.82-25.41C534.12,51.48,545.86,39.76,565.2,39.76Z"/><path d="M403.88,213.84v-39.6h21.49v115.5H407.85l-1.66-9.41c-6.11,6.93-14.38,11.55-24.3,11.55-22.48,0-38.84-18.15-38.84-43.39,0-25.08,16.36-43.4,38.84-43.4A31.44,31.44,0,0,1,403.88,213.84Zm-39,34.65c0,14.68,7.77,24.25,19.5,24.25,12.73,0,19.51-9.57,19.51-24.25s-6.78-24.26-19.51-24.26C372.64,224.23,364.87,233.8,364.87,248.49Z"/><path d="M438.59,248.49c0-26.07,16.53-43.4,41.16-43.4,25.29,0,39.67,17,39.67,40.1a61,61,0,0,1-.83,10.72H460.74c1.82,10.73,9.09,17.33,20.66,17.16,6.94,0,14.71-3.46,20-12.21l17.19,8.91c-8.59,14.85-19.5,22.11-37.19,22.11C456.94,291.88,438.59,273.73,438.59,248.49Zm22.64-9.41H497.6c-.83-10.72-7.27-17.16-18-17.16C469.17,221.92,463.05,228.36,461.23,239.08Z"/><path d="M559.41,204.76c13.56,0,23.48,6.6,28.93,14.19l-13.22,11.88a20.72,20.72,0,0,0-16.86-8.08c-6.61,0-10.91,2.8-10.91,7.75,0,4.29,2.64,6.93,14.21,9.57,17.19,4,27.61,10.56,27.61,25.91,0,15.84-13.72,25.9-31.57,25.9-13.23,0-23.64-5.94-31.58-18L539.41,263c7.77,9.07,12.9,11.55,20.67,11.55,5.62,0,9.75-3,9.75-7.43,0-5.61-5.29-8.08-19.67-11.22-13.56-3-21.82-10.39-21.82-25.41C528.34,216.48,540.07,204.76,559.41,204.76Z"/><path d="M618.42,248.49c0,14.68,7.28,24.25,19.18,24.25,7.93,0,14-3.3,19-12.54L674.46,269c-6.94,15.67-20.83,22.93-37.36,22.93-23.64,0-40.5-18-40.5-43.39s16.86-43.4,40.5-43.4c16.53,0,30.42,7.26,37.36,22.94l-17.85,8.74c-5-9.24-11.08-12.54-19-12.54C625.7,224.23,618.42,233.8,618.42,248.49Z"/><path d="M765.2,248.49c0,25.24-17.52,43.39-43,43.39s-42.81-18.15-42.81-43.39c0-25.08,17.36-43.4,42.81-43.4S765.2,223.41,765.2,248.49Zm-21.82,0c0-14.36-7.93-24.26-21.16-24.26-13.05,0-21,9.9-21,24.26,0,14.52,7.94,24.25,21,24.25C735.45,272.74,743.38,263,743.38,248.49Z"/><path d="M847.35,216.81a39.07,39.07,0,0,1,27.94-11.72c24.29,0,27.77,17,27.77,34.16v50.49H881.57V238.59c0-11.39-3.31-14.52-11.41-14.52-6.78,0-13.88,3.3-18.84,8.25.16,2.31.16,4.62.16,6.93v50.49H830V238.59c0-11.39-3.3-14.52-11.4-14.52-6.78,0-13.56,3.3-18.68,7.92v57.75H778.42v-82.5h17.52l1.49,7.92a39.57,39.57,0,0,1,26.28-10.07C836.44,205.09,843.55,209.71,847.35,216.81Z"/><path d="M921.07,207.24h17.52l1.65,9.4c6.12-6.93,14.38-11.55,24.3-11.55,22.48,0,38.84,18.15,38.84,43.4,0,25.08-16.36,43.39-38.84,43.39a31.48,31.48,0,0,1-22-8.74v35.47H921.07Zm60.49,41.25c0-14.69-7.76-24.26-19.5-24.26-12.73,0-19.51,9.57-19.51,24.26s6.78,24.25,19.51,24.25C973.8,272.74,981.56,263.17,981.56,248.49Z"/><path d="M1036.94,290.56c-14.88,0-23.64-7.75-23.64-25.08V174.24h21.49v86.62c0,6.77,2.48,9.41,8.1,9.41v20A57.2,57.2,0,0,1,1036.94,290.56Z"/><path d="M1066,168.3a13.53,13.53,0,1,1-13.55,13.7A13.54,13.54,0,0,1,1066,168.3Zm-10.74,121.44v-82.5h21.49v82.5Z"/><path d="M1111.81,248.49c0,14.68,7.27,24.25,19.17,24.25,7.94,0,14-3.3,19-12.54l17.85,8.75c-6.94,15.67-20.82,22.93-37.35,22.93-23.64,0-40.5-18-40.5-43.39s16.86-43.4,40.5-43.4c16.53,0,30.41,7.26,37.35,22.94L1150,236.77c-5-9.24-11.07-12.54-19-12.54C1119.08,224.23,1111.81,233.8,1111.81,248.49Z"/><path d="M1228.67,289.74l-1-7.26a34.82,34.82,0,0,1-23.81,9.56c-16.53,0-31.07-11.87-31.07-27.88,0-17.49,14.54-28.05,32.23-28.05,8.93,0,14.88,3.3,19,7.1v-8.58c0-6.77-5.45-11.55-15.7-11.55a45.63,45.63,0,0,0-22.48,5.94l-6.12-15.84c10.58-5.45,19.67-8.09,32.23-8.09,22.32,0,33.56,12.54,33.56,33.17v51.48Zm-34.05-25.58c0,6.6,6.11,10.89,13.72,10.89,7.77,0,13.55-4.29,13.72-10.89,0-6.6-5.79-11.05-13.72-11.05C1200.73,253.11,1194.62,257.56,1194.62,264.16Z"/><path class="cls-1" d="M233.13,23.69,30.33,60.16C13.65,63.17,0,79.54,0,99.28V222.5c0,20.22,13.63,36.24,30.28,39.4L233.2,300.46c24.71,4.7,44.93-13.67,44.93-40V65.53C278.13,36.44,257.88,19.24,233.13,23.69Z"/><path d="M182.64,220.31c-11.94,13.55-28.07,22.58-47.43,22.58C91.34,242.89,59.4,207.4,59.4,158c0-49,31.94-84.85,75.81-84.85a61.28,61.28,0,0,1,42.91,17.1l.46-84.35h41.94l-.46,232.76H185.87ZM102,158c0,28.71,15.17,47.43,38.07,47.43,24.84,0,38.07-18.72,38.07-47.43s-13.23-47.42-38.07-47.42C117.15,110.62,102,129.33,102,158Z"/></g></g></svg>